<svg width="40" height="40" viewBox="0 0 40 40" fill="none" xmlns="http://www.w3.org/2000/svg">
<path d="M20 0C8.95416 0 0 8.95416 0 20C0 31.0458 8.95416 40 20 40C31.0458 40 40 31.0458 40 20C40 8.95416 31.0458 0 20 0ZM20 38.32C9.8822 38.32 1.67999 30.1178 1.67999 20C1.67999 9.8822 9.8822 1.67999 20 1.67999C30.1178 1.67999 38.32 9.8822 38.32 20C38.32 30.1178 30.1178 38.32 20 38.32Z" fill="url(#paint0_linear)"/>
<path d="M26.5835 29.4399C27.7575 29.0874 28.5863 28.2329 28.926 27.0256L29.0258 26.6704L29.0389 17.152C29.049 10.0237 29.0395 7.58899 29.0007 7.45624C28.9599 7.31555 28.8955 7.19714 28.8106 7.10376C28.6867 7.02533 28.5372 6.98413 28.3681 6.98413C28.2512 6.98413 27.846 7.04181 27.4678 7.1123C25.7949 7.42389 15.9337 9.43408 15.7656 9.49756C15.505 9.59613 15.2468 9.83051 15.1244 10.0792L15.0207 10.2898C15.0207 10.2898 14.9718 25.2092 14.8961 25.3774C14.7811 25.6328 14.5263 25.8751 14.2913 25.9523C14.1799 25.989 13.7392 26.09 13.312 26.1769C11.3335 26.5801 10.5987 26.8703 9.97701 27.4947C9.62423 27.8493 9.3627 28.3333 9.24948 28.8414C9.14175 29.327 9.17776 30.0536 9.33187 30.4952C9.49301 30.9575 9.75271 31.3521 10.0924 31.6625C10.4009 31.906 10.7653 32.0873 11.1748 32.1944C12.0806 32.4318 13.7758 32.1678 14.6431 31.6548C15.0054 31.4403 15.4717 30.9899 15.7143 30.6197C15.8101 30.4735 15.9548 30.1781 16.0354 29.9642C16.3176 29.2137 16.3265 15.848 16.3628 15.6795C16.4238 15.3942 16.6146 15.1848 16.8776 15.114C17.1145 15.0502 26.6097 13.1288 26.8767 13.0907C27.112 13.0571 27.3342 13.1346 27.4553 13.2872C27.5274 13.3269 27.5878 13.3803 27.6305 13.4456C27.7074 13.5631 27.7123 13.7957 27.7236 18.0272C27.737 22.8978 27.7425 22.7837 27.484 23.091C27.296 23.3147 27.0607 23.4011 26.0958 23.6025C24.6276 23.9092 24.125 24.0551 23.5628 24.3361C22.8606 24.6871 22.4706 25.0716 22.1694 25.7103C21.9561 26.1623 21.8764 26.501 21.877 26.9509C21.8786 27.755 22.1496 28.3834 22.7611 28.9986C22.8173 29.0551 22.8728 29.1078 22.9284 29.1576C23.2366 29.4011 23.5506 29.5479 23.9455 29.641C24.5412 29.7814 25.7537 29.6889 26.5835 29.4399Z" fill="url(#paint1_linear)"/>
<defs>
<linearGradient id="paint0_linear" x1="8.74945" y1="5.39756" x2="31.5036" y2="34.9308" gradientUnits="userSpaceOnUse">
<stop stop-color="#FF5E50"/>
<stop offset="0.249" stop-color="#FE5C6C"/>
<stop offset="0.3765" stop-color="#E3658A"/>
<stop offset="0.497" stop-color="#B87EB0"/>
<stop offset="0.6267" stop-color="#916CFF"/>
<stop offset="0.7628" stop-color="#70BCFB" stop-opacity="0.917647"/>
<stop offset="1" stop-color="#21C7FE"/>
</linearGradient>
<linearGradient id="paint1_linear" x1="8.68806" y1="5.44465" x2="31.4422" y2="34.978" gradientUnits="userSpaceOnUse">
<stop stop-color="#FF5E50"/>
<stop offset="0.249" stop-color="#FE5C6C"/>
<stop offset="0.3765" stop-color="#E3658A"/>
<stop offset="0.497" stop-color="#B87EB0"/>
<stop offset="0.6267" stop-color="#916CFF"/>
<stop offset="0.7628" stop-color="#70BCFB" stop-opacity="0.917647"/>
<stop offset="1" stop-color="#21C7FE"/>
</linearGradient>
</defs>
</svg>
