<svg width="15" height="14" viewBox="0 0 15 14" fill="none" xmlns="http://www.w3.org/2000/svg">
<path d="M7.5 0C3.63438 0 0.5 3.13438 0.5 7C0.5 10.8656 3.63438 14 7.5 14C11.3656 14 14.5 10.8656 14.5 7C14.5 3.13438 11.3656 0 7.5 0ZM9.75156 7.10781L6.33906 9.59062C6.32035 9.60407 6.2983 9.61209 6.27533 9.61382C6.25236 9.61555 6.22935 9.61091 6.20884 9.60041C6.18834 9.58992 6.17112 9.57397 6.15908 9.55433C6.14705 9.53468 6.14066 9.5121 6.14062 9.48906V4.52656C6.14055 4.50348 6.14687 4.48082 6.15888 4.46111C6.17089 4.4414 6.18812 4.4254 6.20867 4.41488C6.22922 4.40436 6.25228 4.39974 6.2753 4.40153C6.29831 4.40331 6.32038 4.41144 6.33906 4.425L9.75156 6.90625C9.76768 6.91765 9.78084 6.93275 9.78991 6.95029C9.79899 6.96783 9.80373 6.98729 9.80373 7.00703C9.80373 7.02678 9.79899 7.04624 9.78991 7.06377C9.78084 7.08131 9.76768 7.09641 9.75156 7.10781Z" fill="white"/>
</svg>
